<?xml version="1.0" encoding="UTF-8"?> <svg xmlns="http://www.w3.org/2000/svg" xmlns:xlink="http://www.w3.org/1999/xlink" width="384px" height="454px" viewBox="0 0 384 454" version="1.1"><title>Group 141</title><defs><linearGradient x1="51.491128%" y1="2.32708314%" x2="48.9804358%" y2="118.052387%" id="linearGradient-1"><stop stop-color="#BDD0FB" offset="0%"></stop><stop stop-color="#E5EEFF" offset="100%"></stop></linearGradient><linearGradient x1="71.9881075%" y1="-23.1322549%" x2="37.8606309%" y2="94.2797641%" id="linearGradient-2"><stop stop-color="#C5DCFF" offset="0%"></stop><stop stop-color="#91B3FA" offset="100%"></stop></linearGradient><path d="M6.47581395,0.332317308 C6.34639535,0.479442308 6.3627907,0.702016026 6.51244186,0.82925 L6.51244186,0.82925 C6.5644186,0.873147436 11.7195349,5.34005449 13.5505814,13.9045128 L13.5505814,13.9045128 C16.6255814,28.2846955 8.08325581,42.8970545 0.375348837,52.623766 L0.375348837,52.623766 C0.253953488,52.7774071 0.281860465,52.998609 0.438139535,53.118641 L0.438139535,53.118641 C0.503372093,53.1683686 0.581511628,53.1930609 0.658255814,53.1930609 L0.658255814,53.1930609 C0.765,53.1930609 0.870348837,53.1460769 0.941511628,53.0569103 L0.941511628,53.0569103 C15.0743023,35.2218622 15.9805814,21.8424038 14.2524419,13.7594455 L14.2524419,13.7594455 C12.3715116,4.96452564 7.20104651,0.482528846 6.98162791,0.296307692 L6.98162791,0.296307692 C6.91395349,0.238692308 6.8305814,0.210227564 6.74755814,0.210227564 L6.74755814,0.210227564 C6.64709302,0.210227564 6.54697674,0.251724359 6.47581395,0.332317308" id="path-3"></path><linearGradient x1="0.000115681766%" y1="49.9997489%" x2="100.000452%" y2="49.9997489%" id="linearGradient-5"><stop stop-color="#DAE2FD" offset="0%"></stop><stop stop-color="#E8EFFD" offset="100%"></stop></linearGradient><filter x="-15.9%" y="-10.2%" width="131.7%" height="120.5%" filterUnits="objectBoundingBox" id="filter-6"><feOffset dx="0" dy="10" in="SourceAlpha" result="shadowOffsetOuter1"></feOffset><feGaussianBlur stdDeviation="5" in="shadowOffsetOuter1" result="shadowBlurOuter1"></feGaussianBlur><feColorMatrix values="0 0 0 0 0 0 0 0 0 0 0 0 0 0 0 0 0 0 0.25 0" type="matrix" in="shadowBlurOuter1" result="shadowMatrixOuter1"></feColorMatrix><feMerge><feMergeNode in="shadowMatrixOuter1"></feMergeNode><feMergeNode in="SourceGraphic"></feMergeNode></feMerge></filter><linearGradient x1="36.2647334%" y1="22.5712662%" x2="65.5302175%" y2="91.2328225%" id="linearGradient-7"><stop stop-color="#1428BF" offset="0%"></stop><stop stop-color="#110586" offset="100%"></stop></linearGradient><linearGradient x1="34.4185551%" y1="17.8548652%" x2="72.6199695%" y2="73.0576941%" id="linearGradient-8"><stop stop-color="#95ABF6" offset="0%"></stop><stop stop-color="#94AAFA" offset="52.8557855%"></stop><stop stop-color="#474AF1" offset="100%"></stop></linearGradient><linearGradient x1="-145.696492%" y1="155.071796%" x2="30.3999785%" y2="63.2046692%" id="linearGradient-9"><stop stop-color="#FF918E" offset="0%"></stop><stop stop-color="#FD7062" offset="100%"></stop></linearGradient><path d="M1.80491127,167.357875 C-0.255713726,173.725688 0.00941127387,177.631688 0.340161274,179.371625 L0.340161274,179.371625 C0.349348774,179.420188 0.364223774,179.466563 0.376911274,179.513813 L0.376911274,179.513813 C3.33353627,179.777625 9.42003627,179.950438 16.2949113,179.16775 L16.2949113,179.16775 C16.2966613,179.047438 16.2883488,178.925813 16.2577238,178.802438 L16.2577238,178.802438 C14.4350988,171.577125 5.38934877,167.076563 5.38934877,167.076563 L5.38934877,167.076563 L1.80491127,167.357875 Z" id="path-10"></path><linearGradient x1="170.149859%" y1="-112.072518%" x2="29.5552253%" y2="85.3522155%" id="linearGradient-12"><stop stop-color="#4F52FF" offset="0%"></stop><stop stop-color="#3F42E2" offset="100%"></stop></linearGradient><path d="M0.364223774,162.018625 L1.88191127,169.327063 C1.99347377,169.862563 2.40472377,170.26375 2.90303627,170.310563 L2.90303627,170.310563 C3.51334877,170.367438 4.38178627,170.401125 5.25503627,170.272938 L5.25503627,170.272938 C6.03816127,170.157875 6.58372377,169.362063 6.44459877,168.507625 L6.44459877,168.507625 L5.38934877,162.018625 L0.364223774,162.018625 Z" id="path-13"></path><linearGradient x1="60.5058296%" y1="-84.3156055%" x2="33.4055693%" y2="239.035863%" id="linearGradient-15"><stop stop-color="#FDBABA" offset="0%"></stop><stop stop-color="#FF918E" offset="100%"></stop></linearGradient><path d="M24.7535363,178.430563 C25.8118488,178.863688 27.8593488,179.329625 31.8182863,179.440313 L31.8182863,179.440313 C37.9380363,179.611375 45.1965988,179.084625 48.0464738,178.84925 L48.0464738,178.84925 C48.0197863,178.794125 47.9974738,178.73725 47.9602863,178.685625 L47.9602863,178.685625 C46.0405363,176.003313 41.1514738,170.662313 31.4905988,168.346188 L31.4905988,168.346188 L26.8561613,168.199625 C26.8561613,168.199625 24.7924738,171.786688 24.7535363,178.430563" id="path-16"></path><linearGradient x1="105.94425%" y1="4.66994702%" x2="8.27493079%" y2="89.520394%" id="linearGradient-18"><stop stop-color="#4F52FF" offset="0%"></stop><stop stop-color="#3F42E2" offset="100%"></stop></linearGradient><path d="M25.9969113,161.176 C26.0480988,161.521187 26.6833488,166.771625 26.9296613,168.807312 L26.9296613,168.807312 C26.9878488,169.291187 27.3382863,169.665687 27.7801613,169.718625 L27.7801613,169.718625 C28.5689738,169.812687 29.8460363,169.898437 30.9634113,169.669187 L30.9634113,169.669187 C31.5658488,169.545812 32.0024738,168.967 32.0024738,168.293687 L32.0024738,168.293687 L32.0024738,160.051625 L25.9969113,161.176 Z" id="path-19"></path><linearGradient x1="54.9862103%" y1="-22.347524%" x2="35.5148899%" y2="253.930151%" id="linearGradient-21"><stop stop-color="#FDBABA" offset="0%"></stop><stop stop-color="#FF918E" offset="100%"></stop></linearGradient><path d="M-2.18727623,65.3569375 C-2.18727623,65.3569375 -7.14590123,73.536 -7.16121373,75.41725 L-7.16121373,75.41725 C-7.43465123,108.772688 -1.00908873,155.07725 0.107848774,162.856 L0.107848774,162.856 C0.206723774,163.546375 0.765848774,164.0705 1.45972377,164.144438 L1.45972377,164.144438 C3.28672377,164.33825 4.72259877,164.2595 5.61991127,164.155813 L5.61991127,164.155813 C6.21141127,164.087563 6.64716127,163.571313 6.62047377,162.976313 L6.62047377,162.976313 C5.54247377,139.049875 8.91428627,92.9316875 8.91428627,92.9316875 L8.91428627,92.9316875 C14.0391613,101.33825 23.0337238,153.119 24.6012863,162.310438 L24.6012863,162.310438 C24.7548488,163.210813 25.5178488,163.888063 26.4309113,163.913438 L26.4309113,163.913438 C28.1415363,163.961563 30.2074113,163.609813 31.6126613,163.314063 L31.6126613,163.314063 C32.5668488,163.11325 33.2510988,162.271938 33.2545988,161.297625 L33.2545988,161.297625 C33.4567238,107.838625 22.2785988,65.3569375 22.2785988,65.3569375 L22.2785988,65.3569375 L-2.18727623,65.3569375 Z" id="path-22"></path><linearGradient x1="72.0982349%" y1="-31.1815709%" x2="31.2437954%" y2="123.916374%" id="linearGradient-24"><stop stop-color="#08005D" offset="0%"></stop><stop stop-color="#1A0E90" offset="100%"></stop></linearGradient><path d="M-10.5059012,1.095625 C-13.1615262,1.429875 -15.5905262,2.7393125 -17.3405262,4.7645 L-17.3405262,4.7645 C-24.2805887,12.7956875 -39.5090887,34.784 -21.5842762,56.94075 L-21.5842762,56.94075 C-19.2904637,55.6671875 -16.0310887,53.625375 -13.8173387,51.2624375 L-13.8173387,51.2624375 C-15.8000887,45.6720625 -15.9628387,38.528125 -11.8065887,29.7680625 L-11.8065887,29.7680625 C-11.6648387,30.462375 -11.4889637,31.1496875 -11.2754637,31.8260625 L-11.2754637,31.8260625 C-5.54727623,49.9735625 -5.24190123,65.0751875 -5.25458873,68.5555 L-5.25458873,68.5555 C-5.25633873,69.028 -4.97283873,69.4536875 -4.53402623,69.629125 L-4.53402623,69.629125 C3.00497377,72.6505 17.5172863,70.852375 22.3888488,70.1265625 L22.3888488,70.1265625 C23.2817863,69.9935625 23.8829113,69.161875 23.7595363,68.2671875 L23.7595363,68.2671875 C22.0454113,55.85225 27.8637238,37.696875 32.4907238,25.7806875 L32.4907238,25.7806875 C34.3190363,21.0714375 30.9349738,1.5659375 29.9777238,0.2455625 L29.9777238,0.2455625 C24.9512863,-0.4815625 19.7625363,-0.7528125 14.7693488,-0.7528125 L14.7693488,-0.7528125 C4.47934877,-0.7528125 -4.98421373,0.3995625 -10.5059012,1.095625" id="path-25"></path><linearGradient x1="3.05958094%" y1="99.622991%" x2="91.8769936%" y2="13.8322366%" id="linearGradient-27"><stop stop-color="#FF918E" offset="0%"></stop><stop stop-color="#FD7062" offset="100%"></stop></linearGradient><path d="M2.57009877,0.302 C2.47384877,1.0986875 2.96384877,1.851625 3.73428627,2.0769375 L3.73428627,2.0769375 C6.03903627,2.7506875 10.9744738,3.7718125 15.4842238,1.9159375 L15.4842238,1.9159375 C16.3399738,1.56375 16.8129113,0.6375625 16.6164738,-0.2663125 L16.6164738,-0.2663125 L13.9310988,-12.6239375 L4.69416127,-17.254875 L2.57009877,0.302 Z" id="path-28"></path><linearGradient x1="24.0094371%" y1="-38.1268723%" x2="56.4410411%" y2="105.270639%" id="linearGradient-30"><stop stop-color="#FDBABA" offset="0%"></stop><stop stop-color="#FF918E" offset="100%"></stop></linearGradient><path d="M1.67716127,-23.3243125 L12.6111613,-9.677375 L21.7242863,-14.73575 C21.7242863,-14.73575 12.5302238,-30.500625 12.3184738,-30.67825 L12.3184738,-30.67825 C11.8735363,-31.051875 11.3721613,-31.2150625 10.8353488,-31.2150625 L10.8353488,-31.2150625 C7.10478627,-31.214625 1.67716127,-23.3243125 1.67716127,-23.3243125" id="path-31"></path><linearGradient x1="41.6543861%" y1="17.467939%" x2="75.1838456%" y2="174.598844%" id="linearGradient-33"><stop stop-color="#FDBABA" offset="0%"></stop><stop stop-color="#FF918E" offset="100%"></stop></linearGradient><path d="M6.73334877,-37.0355625 C4.59791127,-35.6976875 4.49641127,-33.892125 4.84553627,-32.5266875 L4.84553627,-32.5266875 C5.04941127,-31.7304375 4.56378627,-30.96525 3.76884877,-30.756125 L3.76884877,-30.756125 C3.34753627,-30.6454375 3.13184877,-30.3925625 3.03209877,-30.10425 L3.03209877,-30.10425 C2.80766127,-29.4571875 2.13916127,-29.0616875 1.45491127,-29.1063125 L1.45491127,-29.1063125 C-0.0899012261,-29.2060625 -2.32990123,-28.8586875 -3.45252623,-26.3465625 L-3.45252623,-26.3465625 C-4.56158873,-23.8650625 -3.16815123,-22.4515 -1.91777623,-21.7274375 L-1.91777623,-21.7274375 C-1.21952623,-21.3231875 -0.949588726,-20.427625 -1.33940123,-19.7215 L-1.33940123,-19.7215 C-2.90652623,-16.8816875 -0.929901226,-15.3696875 0.187036274,-14.780375 L0.187036274,-14.780375 C0.559348774,-14.584375 0.992473774,-14.552875 1.39016127,-14.692 L1.39016127,-14.692 C2.43666127,-15.058625 4.77072377,-15.67375 6.12303627,-14.4719375 L6.12303627,-14.4719375 C7.57859877,-13.1786875 11.9269113,-7.927375 13.4704113,-6.0474375 L13.4704113,-6.0474375 C13.8212863,-5.6204375 14.3755988,-5.4205 14.9180988,-5.52725 L14.9180988,-5.52725 C18.2199113,-6.1760625 21.8905363,-7.7808125 23.7446613,-8.6575625 L23.7446613,-8.6575625 C24.4468488,-8.9900625 24.7832863,-9.8055625 24.5063488,-10.531375 L24.5063488,-10.531375 C23.4012238,-13.4280625 21.7321613,-16.4546875 20.8746613,-17.9365 L20.8746613,-17.9365 C20.4585988,-18.656625 19.5350363,-18.910375 18.8201613,-18.4855625 L18.8201613,-18.4855625 C17.5969113,-17.7584375 16.5105988,-16.1020625 15.3560363,-14.2825 L15.3560363,-14.2825 C14.0010988,-12.1479375 12.0113488,-13.54575 11.4259738,-14.0318125 L11.4259738,-14.0318125 C11.3196613,-14.1201875 11.2290988,-14.222125 11.1512238,-14.3363125 L11.1512238,-14.3363125 L6.03334877,-21.860875 C5.77172377,-22.2445625 5.70303627,-22.7249375 5.84566127,-23.16725 L5.84566127,-23.16725 C6.23853627,-24.38525 7.25397377,-26.7298125 9.32772377,-27.114375 L9.32772377,-27.114375 C12.1509113,-27.6371875 16.5482238,-30.056125 15.4732863,-33.0621875 L15.4732863,-33.0621875 C14.6560363,-35.3485625 12.2926613,-37.87425 9.48478627,-37.8738125 L9.48478627,-37.8738125 C8.60016127,-37.8738125 7.67178627,-37.623125 6.73334877,-37.0355625" id="path-34"></path><linearGradient x1="34.2875554%" y1="83.227497%" x2="77.9398105%" y2="24.0529493%" id="linearGradient-36"><stop stop-color="#08005D" offset="0%"></stop><stop stop-color="#1A0E90" offset="100%"></stop></linearGradient><path d="M3.65334877,-16.5448125 C1.36303627,-16.2201875 -0.317401226,-13.8244375 2.68166127,-11.409875 L2.68166127,-11.409875 C6.41222377,-8.4064375 8.04191127,-11.7113125 8.04191127,-11.7113125 L8.04191127,-11.7113125 C8.04191127,-11.7113125 6.06966127,-16.55925 3.86247377,-16.5596875 L3.86247377,-16.5596875 C3.79291127,-16.5596875 3.72334877,-16.554875 3.65334877,-16.5448125" id="path-37"></path><linearGradient x1="7679.38686%" y1="2157.26802%" x2="8097.97154%" y2="2272.89593%" id="linearGradient-39"><stop stop-color="#FDBABA" offset="0%"></stop><stop stop-color="#FF918E" offset="100%"></stop></linearGradient><path d="M-12.5665262,28.4109375 L-11.7750887,28.1213125 C-14.7444012,19.9965 -13.6650887,10.1479375 -13.6541512,10.0495 L-13.6541512,10.0495 L-14.4919637,9.9536875 C-14.5033387,10.0543125 -15.6054012,20.095375 -12.5665262,28.4109375" id="path-40"></path><linearGradient x1="62.6364248%" y1="-96.47283%" x2="41.6903451%" y2="146.705513%" id="linearGradient-42"><stop stop-color="#E1463D" offset="0%"></stop><stop stop-color="#E86059" offset="100%"></stop></linearGradient><path d="M-0.00371372613,83.4151875 C-0.117901226,83.618625 -0.0457137261,83.8754375 0.157723774,83.9891875 L0.157723774,83.9891875 C0.227723774,84.0285625 7.16866127,87.95775 8.09616127,91.533 L8.09616127,91.533 C8.14472377,91.722875 8.31622377,91.848875 8.50347377,91.848875 L8.50347377,91.848875 C8.53847377,91.848875 8.57391127,91.8445 8.60934877,91.834875 L8.60934877,91.834875 C8.83466127,91.7766875 8.97028627,91.5465625 8.91209877,91.32125 L8.91209877,91.32125 C7.89534877,87.3990625 0.868223774,83.42175 0.569848774,83.2541875 L0.569848774,83.2541875 C0.504223774,83.2174375 0.433348774,83.1999375 0.363786274,83.1999375 L0.363786274,83.1999375 C0.216348774,83.1999375 0.0737237739,83.2778125 -0.00371372613,83.4151875" id="path-43"></path><linearGradient x1="432.22485%" y1="-476.165156%" x2="62.1014107%" y2="33.3400728%" id="linearGradient-45"><stop stop-color="#4F52FF" offset="0%"></stop><stop stop-color="#3F42E2" offset="100%"></stop></linearGradient><path d="M-21.5842762,56.9403125 C-18.1586512,61.174875 -13.5233387,65.415125 -7.38783873,69.56525 L-7.38783873,69.56525 L-6.64540123,71.230375 C-6.00971373,72.6575 -4.61977623,73.60425 -3.05921373,73.6781875 L-3.05921373,73.6781875 C5.51709877,74.0868125 7.88966127,72.268125 -0.00502622613,66.7621875 L-0.00502622613,66.7621875 C-0.00502622613,66.7621875 -10.1012137,61.7379375 -13.8173387,51.2624375 L-13.8173387,51.2624375 C-16.0310887,53.625375 -19.2904637,55.6671875 -21.5842762,56.9403125" id="path-46"></path><linearGradient x1="-6.63024479e-05%" y1="50.0007981%" x2="100.00006%" y2="50.0007981%" id="linearGradient-48"><stop stop-color="#FDBABA" offset="0%"></stop><stop stop-color="#FF918E" offset="100%"></stop></linearGradient><path d="M42.7833488,23.8329375 C39.7947863,27.5709375 41.6309738,35.2915 47.4807863,34.2865625 L47.4807863,34.2865625 C53.3310363,33.2820625 62.3207863,14.73775 62.3207863,14.73775 L62.3207863,14.73775 L57.9099113,10.2805 C57.9099113,10.2805 45.7723488,20.095375 42.7833488,23.8329375" id="path-49"></path><linearGradient x1="36.769491%" y1="20.7620807%" x2="64.4171434%" y2="82.6110685%" id="linearGradient-51"><stop stop-color="#FDBABA" offset="0%"></stop><stop stop-color="#FF918E" offset="100%"></stop></linearGradient><path d="M39.2330363,-2.757 C39.2330363,-2.757 59.3155988,16.562125 64.4566613,20.12425 L64.4566613,20.12425 C70.4241613,24.2599375 78.2711613,16.107125 75.5415988,11.5733125 L75.5415988,11.5733125 C72.8115988,7.0399375 52.3217238,-7.337625 52.3217238,-7.337625 L52.3217238,-7.337625 L39.2330363,-2.757 Z" id="path-52"></path><linearGradient x1="36.5248447%" y1="99.3924863%" x2="55.8158821%" y2="24.8784859%" id="linearGradient-54"><stop stop-color="#08005D" offset="0%"></stop><stop stop-color="#1A0E90" offset="100%"></stop></linearGradient><polygon id="path-55" points="43.1727238 -25.6246875 51.2419738 -4.6684375 113.634286 -18.805375 89.5547238 -71.1509375"></polygon><linearGradient x1="96.5667365%" y1="13.8418644%" x2="31.9925369%" y2="93.1258683%" id="linearGradient-57"><stop stop-color="#FF918E" offset="0%"></stop><stop stop-color="#FD7062" offset="100%"></stop></linearGradient><path d="M89.3355363,-71.749 C86.3242238,-70.3223125 89.5577863,-57.1859375 96.5573488,-42.407625 L96.5573488,-42.407625 C103.557786,-27.628875 111.672974,-16.8046875 114.684286,-18.231375 L114.684286,-18.231375 C117.695161,-19.657625 114.461599,-32.7935625 107.462036,-47.5723125 L107.462036,-47.5723125 C100.877661,-61.4734375 93.3067238,-71.875 89.9248488,-71.875 L89.9248488,-71.875 C89.7113488,-71.875 89.5140363,-71.8334375 89.3355363,-71.749" id="path-58"></path><linearGradient x1="-0.000180915935%" y1="50.0002155%" x2="99.9999149%" y2="50.0002155%" id="linearGradient-60"><stop stop-color="#E1463D" offset="0%"></stop><stop stop-color="#E86059" offset="100%"></stop></linearGradient><path d="M91.5072863,-61.8050625 C92.9064113,-56.552 95.3848488,-50.053375 98.4862863,-43.50575 L98.4862863,-43.50575 C101.587286,-36.9585625 105.045724,-30.92325 108.223286,-26.51325 L108.223286,-26.51325 C111.511974,-21.9496875 113.500849,-20.52475 114.231036,-20.257 L114.231036,-20.257 C114.486536,-20.9915625 114.644474,-23.43325 113.196786,-28.86875 L113.196786,-28.86875 C111.797661,-34.1218125 109.319224,-40.6204375 106.217786,-47.1680625 L106.217786,-47.1680625 C103.116786,-53.7156875 99.6587863,-59.7505625 96.4807863,-64.1605625 L96.4807863,-64.1605625 C93.1920988,-68.724125 91.2027863,-70.1490625 90.4730363,-70.4168125 L90.4730363,-70.4168125 C90.2175363,-69.6826875 90.0600363,-67.2405625 91.5072863,-61.8050625" id="path-61"></path><linearGradient x1="23.7678065%" y1="118.496459%" x2="48.4859723%" y2="53.9529563%" id="linearGradient-63"><stop stop-color="#FF918E" offset="0%"></stop><stop stop-color="#FD7062" offset="100%"></stop></linearGradient><path d="M98.0496613,-53.6220625 C96.8758488,-53.0664375 95.8582238,-52.3200625 95.0208488,-51.4433125 L95.0208488,-51.4433125 C96.0507238,-48.8603125 97.2162238,-46.1871875 98.4862863,-43.50575 L98.4862863,-43.50575 C99.6872238,-40.9695625 100.942411,-38.5099375 102.213786,-36.1925 L102.213786,-36.1925 C103.431786,-36.2821875 104.665099,-36.5971875 105.848099,-37.157625 L105.848099,-37.157625 C110.696036,-39.4540625 111.399099,-44.299375 109.245724,-48.845875 L109.245724,-48.845875 C107.646224,-52.2229375 104.921036,-54.4848125 101.638911,-54.4848125 L101.638911,-54.4848125 C100.501411,-54.4848125 99.2974113,-54.213125 98.0496613,-53.6220625" id="path-64"></path><linearGradient x1="100.039312%" y1="14.9533998%" x2="-73.037349%" y2="127.327424%" id="linearGradient-66"><stop stop-color="#08005D" offset="0%"></stop><stop stop-color="#1A0E90" offset="100%"></stop></linearGradient><path d="M33.6920988,-22.504 C31.3742238,-21.057625 30.3097863,-18.2423125 31.0942238,-15.62475 L31.0942238,-15.62475 C32.6565363,-10.4084375 36.2212863,-4.681125 38.4971613,-1.3469375 L38.4971613,-1.3469375 C39.6324738,0.316875 41.8103488,0.9035625 43.6307863,0.0416875 L43.6307863,0.0416875 L55.0473488,-5.3658125 C49.9439113,-12.153625 46.3034738,-19.3185625 44.3377863,-26.916625 L44.3377863,-26.916625 C39.8507863,-25.926125 36.1591613,-24.044 33.6920988,-22.504" id="path-67"></path><linearGradient x1="62.4589184%" y1="86.4490505%" x2="2.77214591%" y2="-42.4234873%" id="linearGradient-69"><stop stop-color="#08005D" offset="0%"></stop><stop stop-color="#1A0E90" offset="100%"></stop></linearGradient><path d="M62.4874738,2.53675 C54.9878488,6.4676875 69.8855988,10.1671875 70.3760363,9.9440625 L70.3760363,9.9440625 C70.8655988,9.7209375 70.3891613,5.153875 67.9798488,2.53675 L67.9798488,2.53675 C67.1765988,1.664375 66.2989738,1.3734375 65.4852238,1.3734375 L65.4852238,1.3734375 C63.8577238,1.3734375 62.4874738,2.53675 62.4874738,2.53675" id="path-70"></path><linearGradient x1="-0.000431273241%" y1="50.0002384%" x2="100.000027%" y2="50.0002384%" id="linearGradient-72"><stop stop-color="#FDBABA" offset="0%"></stop><stop stop-color="#FF918E" offset="100%"></stop></linearGradient></defs><g id="Page-1" stroke="none" stroke-width="1" fill="none" fill-rule="evenodd"><g id="Group-141" transform="translate(29.000000, 29.000000)"><g id="Group-2"><g id="Group-28" transform="translate(245.500000, 302.000000) rotate(9.000000) translate(-245.500000, -302.000000) translate(191.000000, 187.000000)"><g id="Group-18" transform="translate(0.507046, 0.386060)"><g id="Group-12" transform="translate(0.000000, 0.381801)"><path d="M62.5047035,179.825451 C68.3765465,162.909223 57.6106971,155.823051 57.693734,132.349337 C57.788141,105.684309 71.7273077,101.66568 80.9475,65.7236229 C83.0279006,57.6143657 95.0661779,10.68648 80.1457292,1.89048 C66.3502404,-6.24243429 27.5999359,17.0982514 20.808141,46.9727657 C15.9654728,68.27448 30.9358814,77.2182514 25.2183974,102.028766 C20.2013862,123.798137 7.01644231,124.113223 1.96463141,145.116309 C-4.18560897,170.685566 7.00782853,204.927394 25.2183974,208.550366 C39.0876202,211.30968 56.7989343,196.263394 62.5047035,179.825451 Z" id="Fill-4" fill="url(#linearGradient-1)"></path><path d="M26.2256242,215.010446 C22.4868982,186.281074 29.7803598,141.958217 36.5576835,109.834903 C43.8945585,75.05616 52.222363,46.6878171 52.3053998,46.40496 L53.4596466,46.7419886 C53.3766098,47.02416 45.0601755,75.3551314 37.7326034,110.089303 C30.9759527,142.11936 23.7014415,186.295474 27.4184607,214.856846 L26.2256242,215.010446 Z" id="Fill-6" fill="#97A9E8"></path><path d="M14.7874864,155.049497 C21.7749864,147.936583 31.7952268,155.418069 41.4623021,148.044926 C53.8051627,138.630754 44.7255473,120.900583 54.4294896,97.9061829 C62.6876947,78.3376114 82.4962925,59.8209257 94.0718373,63.6204686 C106.188672,67.5972686 112.570451,97.1059543 102.222198,114.864926 C95.4927668,126.413726 85.1917171,126.980811 82.9569575,137.722183 C80.3638646,150.185726 92.8917492,155.869611 92.9603149,167.952583 C93.0829752,189.65784 52.9337925,219.87864 28.8658518,207.400011 C10.6731995,197.967326 4.44577965,165.576583 14.7874864,155.049497 Z" id="Fill-8" fill="url(#linearGradient-2)"></path><path d="M31.6567345,227.584823 C31.5244217,227.584823 31.3900088,227.558588 31.2631566,227.502696 C30.8141333,227.305363 30.6267953,226.816402 30.8447963,226.409949 C60.2476273,171.566149 68.8697975,107.942354 68.9533856,107.306249 C69.0121912,106.857591 69.4624746,106.537067 69.9572822,106.590678 C70.4525099,106.643909 70.806604,107.050742 70.7473783,107.499399 C70.6633702,108.138166 62.0042365,172.035339 32.4699328,227.123999 C32.3140978,227.415246 31.9919267,227.584823 31.6567345,227.584823" id="Fill-10" fill="#CAD5FD"></path></g><g id="Group-15" transform="translate(87.000000, 69.381801)"><mask id="mask-4" fill="white"><use xlink:href="#path-3"></use></mask><g id="Clip-14"></g><path d="M6.47581395,0.332317308 C6.34639535,0.479442308 6.3627907,0.702016026 6.51244186,0.82925 L6.51244186,0.82925 C6.5644186,0.873147436 11.7195349,5.34005449 13.5505814,13.9045128 L13.5505814,13.9045128 C16.6255814,28.2846955 8.08325581,42.8970545 0.375348837,52.623766 L0.375348837,52.623766 C0.253953488,52.7774071 0.281860465,52.998609 0.438139535,53.118641 L0.438139535,53.118641 C0.503372093,53.1683686 0.581511628,53.1930609 0.658255814,53.1930609 L0.658255814,53.1930609 C0.765,53.1930609 0.870348837,53.1460769 0.941511628,53.0569103 L0.941511628,53.0569103 C15.0743023,35.2218622 15.9805814,21.8424038 14.2524419,13.7594455 L14.2524419,13.7594455 C12.3715116,4.96452564 7.20104651,0.482528846 6.98162791,0.296307692 L6.98162791,0.296307692 C6.91395349,0.238692308 6.8305814,0.210227564 6.74755814,0.210227564 L6.74755814,0.210227564 C6.64709302,0.210227564 6.54697674,0.251724359 6.47581395,0.332317308" id="Fill-13" fill="url(#linearGradient-5)" mask="url(#mask-4)"></path></g><path d="M27.644025,203.881801 C27.5303087,203.881801 27.4186725,203.828403 27.34968,203.728794 C15.577267,186.765541 11.5628728,173.658272 15.4181335,164.771536 C18.8455712,156.870617 27.4994527,155.400106 27.5864734,155.386072 C27.7813167,155.356292 27.9636788,155.485338 27.9952281,155.677025 C28.0267775,155.868369 27.895033,156.049445 27.7008832,156.080594 C27.6176761,156.093944 19.3371863,157.511399 16.0692288,165.057012 C12.3231774,173.708248 16.3160764,186.58515 27.9373299,203.331044 C28.048966,203.491582 28.0073625,203.71031 27.8451087,203.820188 C27.7837435,203.861948 27.7133642,203.881801 27.644025,203.881801" id="Fill-16" fill="#F0F0F0"></path></g></g><g id="Group-37" filter="url(#filter-6)"><path d="M130.999246,16.5776485 L130.999246,16.5776485 C130.96857,17.8358137 130.024411,18.8549647 128.844723,18.8969243 C123.021956,19.1042356 106.618813,19.6929127 99.2870953,19.9981296 C97.8415437,20.0584271 96.7422973,18.6513832 97.0528131,17.1423931 L97.1056451,16.8850411 C97.3179956,15.8556333 98.1401297,15.0938341 99.12485,15.0176853 C104.084922,14.633833 119.04933,13.5938576 128.933345,14.170413 C130.120531,14.239724 131.029923,15.3092265 130.999246,16.5776485" id="Fill-8" fill="#FFFFFF"></path><path d="M243.277146,358.043981 C242.757002,368.929658 235.820704,377.574484 227.243832,378.005133 C191.930627,379.778926 71.5160361,382.666603 19.906565,376.161935 C10.6131202,374.990594 3.50029825,365.246106 3.23944065,353.381372 C1.87858113,291.514772 -1.82056819,103.677532 1.63553309,30.0366503 C2.18710548,18.2891073 9.5492612,8.86149069 18.7913726,8.0309138 C57.0253441,4.59710412 185.065568,-2.68295922 228.95093,1.41986307 C237.189421,2.19070669 243.579908,10.7570264 243.718194,21.2535841 C244.519624,81.8822839 246.834866,283.570247 243.277146,358.043981 Z" id="Fill-4" fill="url(#linearGradient-7)"></path><path d="M226.296385,337.001277 C225.835687,346.827033 219.692109,354.630127 212.09545,355.018843 C180.818041,356.619926 74.165117,359.226434 28.4538712,353.355115 C20.2225344,352.297825 13.9226064,343.502143 13.6915611,332.79266 C12.4862283,276.949912 9.20983894,107.402088 12.2709572,40.9315028 C12.7594928,30.3277995 19.2802593,21.818135 27.4661293,21.0684301 C61.3305041,17.968965 174.737559,11.39775 213.607452,15.1010869 C220.904401,15.7968747 226.564547,23.5291054 226.687028,33.0036299 C227.396866,87.7290089 229.447509,269.778933 226.296385,337.001277 Z" id="Fill-4" fill="url(#linearGradient-8)"></path><circle id="Oval" fill="#1428BF" cx="31.5" cy="38.5" r="7.5"></circle></g></g><g id="Group-84" transform="translate(299.000000, 285.000000) scale(-1, 1) translate(-299.000000, -285.000000) translate(273.000000, 195.000000)"><path d="M21.6888488,23.5196875 C21.6888488,23.5196875 45.8252863,40.029625 51.0398488,32.0929375 L51.0398488,32.0929375 C56.2544113,24.1558125 29.8525988,0.2796875 29.8525988,0.2796875 L29.8525988,0.2796875 L21.6888488,23.5196875 Z" id="Fill-123" fill="url(#linearGradient-9)"></path><mask id="mask-11" fill="white"><use xlink:href="#path-10"></use></mask><g id="Clip-127"></g><path d="M1.80491127,167.357875 C-0.255713726,173.725688 0.00941127387,177.631688 0.340161274,179.371625 L0.340161274,179.371625 C0.349348774,179.420188 0.364223774,179.466563 0.376911274,179.513813 L0.376911274,179.513813 C3.33353627,179.777625 9.42003627,179.950438 16.2949113,179.16775 L16.2949113,179.16775 C16.2966613,179.047438 16.2883488,178.925813 16.2577238,178.802438 L16.2577238,178.802438 C14.4350988,171.577125 5.38934877,167.076563 5.38934877,167.076563 L5.38934877,167.076563 L1.80491127,167.357875 Z" id="Fill-126" fill="url(#linearGradient-12)" mask="url(#mask-11)"></path><mask id="mask-14" fill="white"><use xlink:href="#path-13"></use></mask><g id="Clip-130"></g><path d="M0.364223774,162.018625 L1.88191127,169.327063 C1.99347377,169.862563 2.40472377,170.26375 2.90303627,170.310563 L2.90303627,170.310563 C3.51334877,170.367438 4.38178627,170.401125 5.25503627,170.272938 L5.25503627,170.272938 C6.03816127,170.157875 6.58372377,169.362063 6.44459877,168.507625 L6.44459877,168.507625 L5.38934877,162.018625 L0.364223774,162.018625 Z" id="Fill-129" fill="url(#linearGradient-15)" mask="url(#mask-14)"></path><mask id="mask-17" fill="white"><use xlink:href="#path-16"></use></mask><g id="Clip-133"></g><path d="M24.7535363,178.430563 C25.8118488,178.863688 27.8593488,179.329625 31.8182863,179.440313 L31.8182863,179.440313 C37.9380363,179.611375 45.1965988,179.084625 48.0464738,178.84925 L48.0464738,178.84925 C48.0197863,178.794125 47.9974738,178.73725 47.9602863,178.685625 L47.9602863,178.685625 C46.0405363,176.003313 41.1514738,170.662313 31.4905988,168.346188 L31.4905988,168.346188 L26.8561613,168.199625 C26.8561613,168.199625 24.7924738,171.786688 24.7535363,178.430563" id="Fill-132" fill="url(#linearGradient-18)" mask="url(#mask-17)"></path><mask id="mask-20" fill="white"><use xlink:href="#path-19"></use></mask><g id="Clip-136"></g><path d="M25.9969113,161.176 C26.0480988,161.521187 26.6833488,166.771625 26.9296613,168.807312 L26.9296613,168.807312 C26.9878488,169.291187 27.3382863,169.665687 27.7801613,169.718625 L27.7801613,169.718625 C28.5689738,169.812687 29.8460363,169.898437 30.9634113,169.669187 L30.9634113,169.669187 C31.5658488,169.545812 32.0024738,168.967 32.0024738,168.293687 L32.0024738,168.293687 L32.0024738,160.051625 L25.9969113,161.176 Z" id="Fill-135" fill="url(#linearGradient-21)" mask="url(#mask-20)"></path><mask id="mask-23" fill="white"><use xlink:href="#path-22"></use></mask><g id="Clip-139"></g><path d="M-2.18727623,65.3569375 C-2.18727623,65.3569375 -7.14590123,73.536 -7.16121373,75.41725 L-7.16121373,75.41725 C-7.43465123,108.772688 -1.00908873,155.07725 0.107848774,162.856 L0.107848774,162.856 C0.206723774,163.546375 0.765848774,164.0705 1.45972377,164.144438 L1.45972377,164.144438 C3.28672377,164.33825 4.72259877,164.2595 5.61991127,164.155813 L5.61991127,164.155813 C6.21141127,164.087563 6.64716127,163.571313 6.62047377,162.976313 L6.62047377,162.976313 C5.54247377,139.049875 8.91428627,92.9316875 8.91428627,92.9316875 L8.91428627,92.9316875 C14.0391613,101.33825 23.0337238,153.119 24.6012863,162.310438 L24.6012863,162.310438 C24.7548488,163.210813 25.5178488,163.888063 26.4309113,163.913438 L26.4309113,163.913438 C28.1415363,163.961563 30.2074113,163.609813 31.6126613,163.314063 L31.6126613,163.314063 C32.5668488,163.11325 33.2510988,162.271938 33.2545988,161.297625 L33.2545988,161.297625 C33.4567238,107.838625 22.2785988,65.3569375 22.2785988,65.3569375 L22.2785988,65.3569375 L-2.18727623,65.3569375 Z" id="Fill-138" fill="url(#linearGradient-24)" mask="url(#mask-23)"></path><mask id="mask-26" fill="white"><use xlink:href="#path-25"></use></mask><g id="Clip-142"></g><path d="M-10.5059012,1.095625 C-13.1615262,1.429875 -15.5905262,2.7393125 -17.3405262,4.7645 L-17.3405262,4.7645 C-24.2805887,12.7956875 -39.5090887,34.784 -21.5842762,56.94075 L-21.5842762,56.94075 C-19.2904637,55.6671875 -16.0310887,53.625375 -13.8173387,51.2624375 L-13.8173387,51.2624375 C-15.8000887,45.6720625 -15.9628387,38.528125 -11.8065887,29.7680625 L-11.8065887,29.7680625 C-11.6648387,30.462375 -11.4889637,31.1496875 -11.2754637,31.8260625 L-11.2754637,31.8260625 C-5.54727623,49.9735625 -5.24190123,65.0751875 -5.25458873,68.5555 L-5.25458873,68.5555 C-5.25633873,69.028 -4.97283873,69.4536875 -4.53402623,69.629125 L-4.53402623,69.629125 C3.00497377,72.6505 17.5172863,70.852375 22.3888488,70.1265625 L22.3888488,70.1265625 C23.2817863,69.9935625 23.8829113,69.161875 23.7595363,68.2671875 L23.7595363,68.2671875 C22.0454113,55.85225 27.8637238,37.696875 32.4907238,25.7806875 L32.4907238,25.7806875 C34.3190363,21.0714375 30.9349738,1.5659375 29.9777238,0.2455625 L29.9777238,0.2455625 C24.9512863,-0.4815625 19.7625363,-0.7528125 14.7693488,-0.7528125 L14.7693488,-0.7528125 C4.47934877,-0.7528125 -4.98421373,0.3995625 -10.5059012,1.095625" id="Fill-141" fill="url(#linearGradient-27)" mask="url(#mask-26)"></path><mask id="mask-29" fill="white"><use xlink:href="#path-28"></use></mask><g id="Clip-145"></g><path d="M2.57009877,0.302 C2.47384877,1.0986875 2.96384877,1.851625 3.73428627,2.0769375 L3.73428627,2.0769375 C6.03903627,2.7506875 10.9744738,3.7718125 15.4842238,1.9159375 L15.4842238,1.9159375 C16.3399738,1.56375 16.8129113,0.6375625 16.6164738,-0.2663125 L16.6164738,-0.2663125 L13.9310988,-12.6239375 L4.69416127,-17.254875 L2.57009877,0.302 Z" id="Fill-144" fill="url(#linearGradient-30)" mask="url(#mask-29)"></path><mask id="mask-32" fill="white"><use xlink:href="#path-31"></use></mask><g id="Clip-148"></g><path d="M1.67716127,-23.3243125 L12.6111613,-9.677375 L21.7242863,-14.73575 C21.7242863,-14.73575 12.5302238,-30.500625 12.3184738,-30.67825 L12.3184738,-30.67825 C11.8735363,-31.051875 11.3721613,-31.2150625 10.8353488,-31.2150625 L10.8353488,-31.2150625 C7.10478627,-31.214625 1.67716127,-23.3243125 1.67716127,-23.3243125" id="Fill-147" fill="url(#linearGradient-33)" mask="url(#mask-32)"></path><mask id="mask-35" fill="white"><use xlink:href="#path-34"></use></mask><g id="Clip-151"></g><path d="M6.73334877,-37.0355625 C4.59791127,-35.6976875 4.49641127,-33.892125 4.84553627,-32.5266875 L4.84553627,-32.5266875 C5.04941127,-31.7304375 4.56378627,-30.96525 3.76884877,-30.756125 L3.76884877,-30.756125 C3.34753627,-30.6454375 3.13184877,-30.3925625 3.03209877,-30.10425 L3.03209877,-30.10425 C2.80766127,-29.4571875 2.13916127,-29.0616875 1.45491127,-29.1063125 L1.45491127,-29.1063125 C-0.0899012261,-29.2060625 -2.32990123,-28.8586875 -3.45252623,-26.3465625 L-3.45252623,-26.3465625 C-4.56158873,-23.8650625 -3.16815123,-22.4515 -1.91777623,-21.7274375 L-1.91777623,-21.7274375 C-1.21952623,-21.3231875 -0.949588726,-20.427625 -1.33940123,-19.7215 L-1.33940123,-19.7215 C-2.90652623,-16.8816875 -0.929901226,-15.3696875 0.187036274,-14.780375 L0.187036274,-14.780375 C0.559348774,-14.584375 0.992473774,-14.552875 1.39016127,-14.692 L1.39016127,-14.692 C2.43666127,-15.058625 4.77072377,-15.67375 6.12303627,-14.4719375 L6.12303627,-14.4719375 C7.57859877,-13.1786875 11.9269113,-7.927375 13.4704113,-6.0474375 L13.4704113,-6.0474375 C13.8212863,-5.6204375 14.3755988,-5.4205 14.9180988,-5.52725 L14.9180988,-5.52725 C18.2199113,-6.1760625 21.8905363,-7.7808125 23.7446613,-8.6575625 L23.7446613,-8.6575625 C24.4468488,-8.9900625 24.7832863,-9.8055625 24.5063488,-10.531375 L24.5063488,-10.531375 C23.4012238,-13.4280625 21.7321613,-16.4546875 20.8746613,-17.9365 L20.8746613,-17.9365 C20.4585988,-18.656625 19.5350363,-18.910375 18.8201613,-18.4855625 L18.8201613,-18.4855625 C17.5969113,-17.7584375 16.5105988,-16.1020625 15.3560363,-14.2825 L15.3560363,-14.2825 C14.0010988,-12.1479375 12.0113488,-13.54575 11.4259738,-14.0318125 L11.4259738,-14.0318125 C11.3196613,-14.1201875 11.2290988,-14.222125 11.1512238,-14.3363125 L11.1512238,-14.3363125 L6.03334877,-21.860875 C5.77172377,-22.2445625 5.70303627,-22.7249375 5.84566127,-23.16725 L5.84566127,-23.16725 C6.23853627,-24.38525 7.25397377,-26.7298125 9.32772377,-27.114375 L9.32772377,-27.114375 C12.1509113,-27.6371875 16.5482238,-30.056125 15.4732863,-33.0621875 L15.4732863,-33.0621875 C14.6560363,-35.3485625 12.2926613,-37.87425 9.48478627,-37.8738125 L9.48478627,-37.8738125 C8.60016127,-37.8738125 7.67178627,-37.623125 6.73334877,-37.0355625" id="Fill-150" fill="url(#linearGradient-36)" mask="url(#mask-35)"></path><mask id="mask-38" fill="white"><use xlink:href="#path-37"></use></mask><g id="Clip-154"></g><path d="M3.65334877,-16.5448125 C1.36303627,-16.2201875 -0.317401226,-13.8244375 2.68166127,-11.409875 L2.68166127,-11.409875 C6.41222377,-8.4064375 8.04191127,-11.7113125 8.04191127,-11.7113125 L8.04191127,-11.7113125 C8.04191127,-11.7113125 6.06966127,-16.55925 3.86247377,-16.5596875 L3.86247377,-16.5596875 C3.79291127,-16.5596875 3.72334877,-16.554875 3.65334877,-16.5448125" id="Fill-153" fill="url(#linearGradient-39)" mask="url(#mask-38)"></path><mask id="mask-41" fill="white"><use xlink:href="#path-40"></use></mask><g id="Clip-157"></g><path d="M-12.5665262,28.4109375 L-11.7750887,28.1213125 C-14.7444012,19.9965 -13.6650887,10.1479375 -13.6541512,10.0495 L-13.6541512,10.0495 L-14.4919637,9.9536875 C-14.5033387,10.0543125 -15.6054012,20.095375 -12.5665262,28.4109375" id="Fill-156" fill="url(#linearGradient-42)" mask="url(#mask-41)"></path><mask id="mask-44" fill="white"><use xlink:href="#path-43"></use></mask><g id="Clip-160"></g><path d="M-0.00371372613,83.4151875 C-0.117901226,83.618625 -0.0457137261,83.8754375 0.157723774,83.9891875 L0.157723774,83.9891875 C0.227723774,84.0285625 7.16866127,87.95775 8.09616127,91.533 L8.09616127,91.533 C8.14472377,91.722875 8.31622377,91.848875 8.50347377,91.848875 L8.50347377,91.848875 C8.53847377,91.848875 8.57391127,91.8445 8.60934877,91.834875 L8.60934877,91.834875 C8.83466127,91.7766875 8.97028627,91.5465625 8.91209877,91.32125 L8.91209877,91.32125 C7.89534877,87.3990625 0.868223774,83.42175 0.569848774,83.2541875 L0.569848774,83.2541875 C0.504223774,83.2174375 0.433348774,83.1999375 0.363786274,83.1999375 L0.363786274,83.1999375 C0.216348774,83.1999375 0.0737237739,83.2778125 -0.00371372613,83.4151875" id="Fill-159" fill="url(#linearGradient-45)" mask="url(#mask-44)"></path><mask id="mask-47" fill="white"><use xlink:href="#path-46"></use></mask><g id="Clip-163"></g><path d="M-21.5842762,56.9403125 C-18.1586512,61.174875 -13.5233387,65.415125 -7.38783873,69.56525 L-7.38783873,69.56525 L-6.64540123,71.230375 C-6.00971373,72.6575 -4.61977623,73.60425 -3.05921373,73.6781875 L-3.05921373,73.6781875 C5.51709877,74.0868125 7.88966127,72.268125 -0.00502622613,66.7621875 L-0.00502622613,66.7621875 C-0.00502622613,66.7621875 -10.1012137,61.7379375 -13.8173387,51.2624375 L-13.8173387,51.2624375 C-16.0310887,53.625375 -19.2904637,55.6671875 -21.5842762,56.9403125" id="Fill-162" fill="url(#linearGradient-48)" mask="url(#mask-47)"></path><mask id="mask-50" fill="white"><use xlink:href="#path-49"></use></mask><g id="Clip-166"></g><path d="M42.7833488,23.8329375 C39.7947863,27.5709375 41.6309738,35.2915 47.4807863,34.2865625 L47.4807863,34.2865625 C53.3310363,33.2820625 62.3207863,14.73775 62.3207863,14.73775 L62.3207863,14.73775 L57.9099113,10.2805 C57.9099113,10.2805 45.7723488,20.095375 42.7833488,23.8329375" id="Fill-165" fill="url(#linearGradient-51)" mask="url(#mask-50)"></path><mask id="mask-53" fill="white"><use xlink:href="#path-52"></use></mask><g id="Clip-169"></g><path d="M39.2330363,-2.757 C39.2330363,-2.757 59.3155988,16.562125 64.4566613,20.12425 L64.4566613,20.12425 C70.4241613,24.2599375 78.2711613,16.107125 75.5415988,11.5733125 L75.5415988,11.5733125 C72.8115988,7.0399375 52.3217238,-7.337625 52.3217238,-7.337625 L52.3217238,-7.337625 L39.2330363,-2.757 Z" id="Fill-168" fill="url(#linearGradient-54)" mask="url(#mask-53)"></path><mask id="mask-56" fill="white"><use xlink:href="#path-55"></use></mask><g id="Clip-172"></g><polygon id="Fill-171" fill="url(#linearGradient-57)" mask="url(#mask-56)" points="43.1727238 -25.6246875 51.2419738 -4.6684375 113.634286 -18.805375 89.5547238 -71.1509375"></polygon><mask id="mask-59" fill="white"><use xlink:href="#path-58"></use></mask><g id="Clip-175"></g><path d="M89.3355363,-71.749 C86.3242238,-70.3223125 89.5577863,-57.1859375 96.5573488,-42.407625 L96.5573488,-42.407625 C103.557786,-27.628875 111.672974,-16.8046875 114.684286,-18.231375 L114.684286,-18.231375 C117.695161,-19.657625 114.461599,-32.7935625 107.462036,-47.5723125 L107.462036,-47.5723125 C100.877661,-61.4734375 93.3067238,-71.875 89.9248488,-71.875 L89.9248488,-71.875 C89.7113488,-71.875 89.5140363,-71.8334375 89.3355363,-71.749" id="Fill-174" fill="url(#linearGradient-60)" mask="url(#mask-59)"></path><mask id="mask-62" fill="white"><use xlink:href="#path-61"></use></mask><g id="Clip-178"></g><path d="M91.5072863,-61.8050625 C92.9064113,-56.552 95.3848488,-50.053375 98.4862863,-43.50575 L98.4862863,-43.50575 C101.587286,-36.9585625 105.045724,-30.92325 108.223286,-26.51325 L108.223286,-26.51325 C111.511974,-21.9496875 113.500849,-20.52475 114.231036,-20.257 L114.231036,-20.257 C114.486536,-20.9915625 114.644474,-23.43325 113.196786,-28.86875 L113.196786,-28.86875 C111.797661,-34.1218125 109.319224,-40.6204375 106.217786,-47.1680625 L106.217786,-47.1680625 C103.116786,-53.7156875 99.6587863,-59.7505625 96.4807863,-64.1605625 L96.4807863,-64.1605625 C93.1920988,-68.724125 91.2027863,-70.1490625 90.4730363,-70.4168125 L90.4730363,-70.4168125 C90.2175363,-69.6826875 90.0600363,-67.2405625 91.5072863,-61.8050625" id="Fill-177" fill="url(#linearGradient-63)" mask="url(#mask-62)"></path><mask id="mask-65" fill="white"><use xlink:href="#path-64"></use></mask><g id="Clip-181"></g><path d="M98.0496613,-53.6220625 C96.8758488,-53.0664375 95.8582238,-52.3200625 95.0208488,-51.4433125 L95.0208488,-51.4433125 C96.0507238,-48.8603125 97.2162238,-46.1871875 98.4862863,-43.50575 L98.4862863,-43.50575 C99.6872238,-40.9695625 100.942411,-38.5099375 102.213786,-36.1925 L102.213786,-36.1925 C103.431786,-36.2821875 104.665099,-36.5971875 105.848099,-37.157625 L105.848099,-37.157625 C110.696036,-39.4540625 111.399099,-44.299375 109.245724,-48.845875 L109.245724,-48.845875 C107.646224,-52.2229375 104.921036,-54.4848125 101.638911,-54.4848125 L101.638911,-54.4848125 C100.501411,-54.4848125 99.2974113,-54.213125 98.0496613,-53.6220625" id="Fill-180" fill="url(#linearGradient-66)" mask="url(#mask-65)"></path><mask id="mask-68" fill="white"><use xlink:href="#path-67"></use></mask><g id="Clip-184"></g><path d="M33.6920988,-22.504 C31.3742238,-21.057625 30.3097863,-18.2423125 31.0942238,-15.62475 L31.0942238,-15.62475 C32.6565363,-10.4084375 36.2212863,-4.681125 38.4971613,-1.3469375 L38.4971613,-1.3469375 C39.6324738,0.316875 41.8103488,0.9035625 43.6307863,0.0416875 L43.6307863,0.0416875 L55.0473488,-5.3658125 C49.9439113,-12.153625 46.3034738,-19.3185625 44.3377863,-26.916625 L44.3377863,-26.916625 C39.8507863,-25.926125 36.1591613,-24.044 33.6920988,-22.504" id="Fill-183" fill="url(#linearGradient-69)" mask="url(#mask-68)"></path><path d="M43.1333488,-20.2819812 L34.2389738,-16.0692937 C33.8929113,-15.9052312 33.4855988,-15.9437312 33.1762863,-16.1690437 C32.8669738,-16.3947937 32.7064113,-16.7706062 32.7567238,-17.1503562 C32.7855988,-17.3691062 32.9872863,-17.5226687 33.2060363,-17.4937937 C33.4247863,-17.4649187 33.5783488,-17.2636687 33.5494738,-17.0449187 C33.5324113,-16.9149812 33.6124738,-16.8406062 33.6474738,-16.8152312 C33.6829113,-16.7894187 33.7778488,-16.7356062 33.8964113,-16.7916062 L42.7912238,-21.0047312 C42.9132863,-21.0624812 42.9653488,-21.2086062 42.9075988,-21.3302312 L42.6079113,-21.9632937 C42.5501613,-22.0853562 42.4040363,-22.1374187 42.2819738,-22.0796687 L33.3210988,-17.8354812 C33.1215988,-17.7409812 32.8831613,-17.8262937 32.7886613,-18.0257937 C32.6945988,-18.2252937 32.7794738,-18.4637312 32.9789738,-18.5582312 L41.9394113,-22.8024187 C42.4600363,-23.0487312 43.0839113,-22.8260437 43.3306613,-22.3054187 L43.6303488,-21.6727937 C43.8766613,-21.1526062 43.6539738,-20.5287312 43.1333488,-20.2819812" id="Fill-186" fill="#91B3FA" mask="url(#mask-68)"></path><path d="M44.2059675,-15.9669187 L35.3115925,-11.7542312 C34.96553,-11.5901687 34.5582175,-11.6282312 34.2493425,-11.8539812 C33.94003,-12.0797312 33.77903,-12.4555437 33.8293425,-12.8348562 C33.8582175,-13.0544812 34.0594675,-13.2080437 34.2782175,-13.1787312 C34.497405,-13.1498562 34.6509675,-12.9490437 34.6220925,-12.7302937 C34.60503,-12.5999187 34.6850925,-12.5259812 34.72053,-12.5001687 C34.75553,-12.4743562 34.8504675,-12.4205437 34.9694675,-12.4765437 L43.8638425,-16.6896687 C43.985905,-16.7474187 44.0379675,-16.8935437 43.9802175,-17.0156062 L43.68053,-17.6482312 C43.62278,-17.7702937 43.476655,-17.8223562 43.3545925,-17.7646062 L34.3937175,-13.5204187 C34.194655,-13.4259187 33.95578,-13.5112312 33.86128,-13.7107312 C33.7672175,-13.9102312 33.8520925,-14.1486687 34.0515925,-14.2431687 L43.01203,-18.4873562 C43.532655,-18.7341062 44.15653,-18.5109812 44.40328,-17.9903562 L44.7029675,-17.3577312 C44.94928,-16.8375437 44.7265925,-16.2136687 44.2059675,-15.9669187" id="Fill-188" fill="#91B3FA" mask="url(#mask-68)"></path><path d="M50.632055,-30.720775 C50.47893,-30.64815 50.28993,-30.678775 50.168305,-30.80915 C50.017805,-30.971025 50.0269925,-31.2239 50.1879925,-31.3744 L85.8844925,-64.6580875 C86.04593,-64.8085875 86.2992425,-64.7994 86.449305,-64.6379625 C86.6002425,-64.476525 86.591055,-64.22365 86.4296175,-64.0727125 L50.733555,-30.7894625 C50.7024925,-30.761025 50.6683675,-30.7378375 50.632055,-30.720775" id="Fill-190" fill="#FFFFFF" mask="url(#mask-68)"></path><path d="M46.0488925,-25.7051437 C45.9062675,-25.6377687 45.7312675,-25.6583312 45.6078925,-25.7712062 C45.444705,-25.9199562 45.43333,-26.1732687 45.5825175,-26.3360187 L47.32683,-28.2448312 C47.47558,-28.4080187 47.7288925,-28.4189562 47.8916425,-28.2702062 C48.0543925,-28.1214562 48.0657675,-27.8681437 47.9170175,-27.7053937 L46.172705,-25.7965812 C46.13683,-25.7572062 46.0943925,-25.7265812 46.0488925,-25.7051437" id="Fill-192" fill="#FFFFFF" mask="url(#mask-68)"></path><path d="M47.1844675,-11.729075 L38.2900925,-7.5163875 C37.94403,-7.352325 37.537155,-7.390825 37.2278425,-7.6161375 C36.91853,-7.8418875 36.75753,-8.2177 36.807405,-8.59745 C36.8367175,-8.8166375 37.0379675,-8.9702 37.25628,-8.941325 C37.4754675,-8.91245 37.6294675,-8.7112 37.600155,-8.49245 C37.5830925,-8.362075 37.6635925,-8.2877 37.6985925,-8.262325 C37.73403,-8.2365125 37.829405,-8.1827 37.94753,-8.2387 L46.8423425,-12.451825 C46.964405,-12.509575 47.0164675,-12.6557 46.9587175,-12.7777625 L46.65903,-13.4103875 C46.60128,-13.53245 46.455155,-13.5845125 46.3330925,-13.5267625 L37.3722175,-9.282575 C37.1727175,-9.188075 36.93428,-9.2733875 36.83978,-9.4728875 C36.74528,-9.6723875 36.8305925,-9.910825 37.0300925,-10.005325 L45.99053,-14.2495125 C46.511155,-14.495825 47.13503,-14.2731375 47.38178,-13.75295 L47.6814675,-13.1198875 C47.92778,-12.5997 47.7050925,-11.975825 47.1844675,-11.729075" id="Fill-194" fill="#91B3FA" mask="url(#mask-68)"></path><path d="M50.4428363,-7.00271875 L41.5480238,-2.78959375 C41.2019613,-2.62596875 40.7950863,-2.66446875 40.4857738,-2.88978125 C40.1764613,-3.11553125 40.0154613,-3.49134375 40.0657738,-3.87109375 C40.0946488,-4.09028125 40.2958988,-4.24384375 40.5146488,-4.21496875 C40.7338363,-4.18565625 40.8873988,-3.98484375 40.8585238,-3.76609375 C40.8414613,-3.63571875 40.9215238,-3.56178125 40.9569613,-3.53596875 C40.9923988,-3.51015625 41.0873363,-3.45634375 41.2058988,-3.51234375 L50.1007113,-7.72546875 C50.2223363,-7.78321875 50.2748363,-7.92934375 50.2170863,-8.05140625 L49.9169613,-8.68403125 C49.8596488,-8.80609375 49.7130863,-8.85815625 49.5914613,-8.80040625 L40.6305863,-4.55621875 C40.4310863,-4.46171875 40.1926488,-4.54703125 40.0981488,-4.74653125 C40.0036488,-4.94603125 40.0889613,-5.18446875 40.2884613,-5.27896875 L49.2488988,-9.52315625 C49.7695238,-9.76946875 50.3933988,-9.54678125 50.6397113,-9.02659375 L50.9393988,-8.39353125 C51.1861488,-7.87334375 50.9630238,-7.24903125 50.4428363,-7.00271875" id="Fill-196" fill="#91B3FA" mask="url(#mask-68)"></path><path d="M71.5746988,17.0761437 C71.1551363,17.2747687 70.7097613,17.4300812 70.2433863,17.5385812 C68.2028863,18.0115187 66.1190738,17.5053312 64.5265738,16.1490812 L49.9425113,3.72714375 C49.7745113,3.58408125 49.7543863,3.33208125 49.8974488,3.16364375 C50.0405113,2.99608125 50.2929488,2.97551875 50.4609488,3.11901875 L65.0450113,15.5400812 C66.4423863,16.7305187 68.2715738,17.1745812 70.0626988,16.7593937 C71.8218863,16.3512062 73.2411363,15.1743312 73.9551363,13.5302062 C73.9940738,13.4405187 74.0321363,13.3490812 74.0701988,13.2567687 C74.1533238,13.0520187 74.3865113,12.9540187 74.5912613,13.0375812 C74.7960113,13.1207062 74.8940113,13.3543312 74.8104488,13.5586437 C74.7706363,13.6575187 74.7295113,13.7537687 74.6883863,13.8487062 C74.0623238,15.2915812 72.9615738,16.4194562 71.5746988,17.0761437" id="Fill-198" fill="#91B3FA" mask="url(#mask-68)"></path><path d="M48.2166613,1.94756875 C48.0788488,2.01275625 47.9095363,1.99613125 47.7861613,1.89069375 L46.1590988,0.50469375 C45.9910988,0.36163125 45.9709738,0.10919375 46.1140363,-0.05880625 C46.2566613,-0.22680625 46.5099738,-0.24736875 46.6775363,-0.10386875 L48.3045988,1.28213125 C48.4725988,1.42519375 48.4927238,1.67763125 48.3496613,1.84563125 C48.3120363,1.88981875 48.2660988,1.92394375 48.2166613,1.94756875" id="Fill-200" fill="#91B3FA" mask="url(#mask-68)"></path><path d="M107.896561,-48.3351375 C107.708874,-48.246325 107.481374,-48.316325 107.377686,-48.5005125 C106.187249,-50.6132 104.662561,-51.8837 102.846936,-52.27745 C99.6995613,-52.9586375 96.6676863,-50.77945 96.6374988,-50.7567 C96.4585613,-50.6267625 96.2087488,-50.6652625 96.0788113,-50.843325 C95.9484363,-51.0213875 95.9869363,-51.2716375 96.1645613,-51.4020125 C96.2997488,-51.5008875 99.5079363,-53.8152625 103.010124,-53.0601375 C105.061561,-52.617825 106.765186,-51.2156375 108.074186,-48.89295 C108.182686,-48.7008875 108.114436,-48.4567625 107.922374,-48.3487 C107.914061,-48.3438875 107.905311,-48.339075 107.896561,-48.3351375" id="Fill-202" fill="#91B3FA" mask="url(#mask-68)"></path><mask id="mask-71" fill="white"><use xlink:href="#path-70"></use></mask><g id="Clip-206"></g><path d="M62.4874738,2.53675 C54.9878488,6.4676875 69.8855988,10.1671875 70.3760363,9.9440625 L70.3760363,9.9440625 C70.8655988,9.7209375 70.3891613,5.153875 67.9798488,2.53675 L67.9798488,2.53675 C67.1765988,1.664375 66.2989738,1.3734375 65.4852238,1.3734375 L65.4852238,1.3734375 C63.8577238,1.3734375 62.4874738,2.53675 62.4874738,2.53675" id="Fill-205" fill="url(#linearGradient-72)" mask="url(#mask-71)"></path></g></g></g></svg> 